<svg id="eGsIcFzAVaK1"
     xmlns="http://www.w3.org/2000/svg"
     xmlns:xlink="http://www.w3.org/1999/xlink"
     viewBox="0 0 224.65 52.34"
     shape-rendering="geometricPrecision"
     text-rendering="geometricPrecision"
     stroke-linejoin="round"
>
    <style>
        <![CDATA[
        #eGsIcFzAVaK3_to {
            animation: eGsIcFzAVaK3_to__to 2500ms linear infinite normal forwards
        }

        @keyframes eGsIcFzAVaK3_to__to {
            0% {
                transform: translate(22.350002px, 27.439998px)
            }

            12% {
                transform: translate(22.350002px, 16.229983px)
            }

            36% {
                transform: translate(22.350002px, 27.439998px)
            }

            100% {
                transform: translate(22.350002px, 27.439998px)
            }
        }

        #eGsIcFzAVaK7_to {
            animation: eGsIcFzAVaK7_to__to 2500ms linear infinite normal forwards
        }

        @keyframes eGsIcFzAVaK7_to__to {
            0% {
                transform: translate(22.126835px, 10.413245px)
            }

            8% {
                transform: translate(22.126835px, 10.413245px)
            }

            24% {
                transform: translate(22.126835px, 3.621536px)
            }

            36% {
                transform: translate(22.126835px, 10.413245px)
            }

            100% {
                transform: translate(22.126835px, 10.413245px)
            }
        }

        #eGsIcFzAVaK28_to {
            animation: eGsIcFzAVaK28_to__to 2500ms linear infinite normal forwards
        }

        @keyframes eGsIcFzAVaK28_to__to {
            0% {
                transform: translate(112.355003px, 26.165125px)
            }

            32% {
                transform: translate(112.355003px, 26.165125px)
            }

            44% {
                transform: translate(112.355003px, 14.955109px)
            }

            68% {
                transform: translate(112.355003px, 26.165124px)
            }

            100% {
                transform: translate(112.355003px, 26.165124px)
            }
        }

        #eGsIcFzAVaK30_to {
            animation: eGsIcFzAVaK30_to__to 2500ms linear infinite normal forwards
        }

        @keyframes eGsIcFzAVaK30_to__to {
            0% {
                transform: translate(111.040018px, 3.18025px)
            }

            40% {
                transform: translate(111.040018px, 3.18025px)
            }

            48% {
                transform: translate(111.040018px, -1.681777px)
            }

            60% {
                transform: translate(111.040018px, 3.18025px)
            }

            100% {
                transform: translate(111.040018px, 3.18025px)
            }
        }

        #eGsIcFzAVaK35_to {
            animation: eGsIcFzAVaK35_to__to 2500ms linear infinite normal forwards
        }

        @keyframes eGsIcFzAVaK35_to__to {
            0% {
                transform: translate(118.989956px, 3.929969px)
            }

            40% {
                transform: translate(118.989956px, 3.929969px)
            }

            44% {
                transform: translate(118.989957px, -0.670075px)
            }

            60% {
                transform: translate(118.989956px, 3.929969px)
            }

            100% {
                transform: translate(118.989956px, 3.929969px)
            }
        }

        #eGsIcFzAVaK40_to {
            animation: eGsIcFzAVaK40_to__to 2500ms linear infinite normal forwards
        }

        @keyframes eGsIcFzAVaK40_to__to {
            0% {
                transform: translate(127.939972px, 5.419954px)
            }

            40% {
                transform: translate(127.939972px, 5.419954px)
            }

            52% {
                transform: translate(127.939972px, -1.59182px)
            }

            60% {
                transform: translate(127.939972px, 5.419954px)
            }

            100% {
                transform: translate(127.939972px, 5.419954px)
            }
        }

        #eGsIcFzAVaK45_to {
            animation: eGsIcFzAVaK45_to__to 2500ms linear infinite normal forwards
        }

        @keyframes eGsIcFzAVaK45_to__to {
            0% {
                transform: translate(103.449951px, 3.999954px)
            }

            44% {
                transform: translate(103.449951px, 3.999954px)
            }

            52% {
                transform: translate(103.449951px, -4.491801px)
            }

            68% {
                transform: translate(103.449951px, 3.999954px)
            }

            100% {
                transform: translate(103.449951px, 3.999954px)
            }
        }

        #eGsIcFzAVaK50_to {
            animation: eGsIcFzAVaK50_to__to 2500ms linear infinite normal forwards
        }

        @keyframes eGsIcFzAVaK50_to__to {
            0% {
                transform: translate(96.449963px, 8.999968px)
            }

            44% {
                transform: translate(96.449963px, 8.999968px)
            }

            60% {
                transform: translate(97.069874px, 2.228631px)
            }

            68% {
                transform: translate(96.449963px, 8.999968px)
            }

            100% {
                transform: translate(96.449963px, 8.999968px)
            }
        }

        #eGsIcFzAVaK55_to {
            animation: eGsIcFzAVaK55_to__to 2500ms linear infinite normal forwards
        }

        @keyframes eGsIcFzAVaK55_to__to {
            0% {
                transform: translate(99.809952px, 6.669952px)
            }

            44% {
                transform: translate(99.809952px, 6.669952px)
            }

            56% {
                transform: translate(99.809952px, -5.375045px)
            }

            68% {
                transform: translate(99.809952px, 6.669952px)
            }

            100% {
                transform: translate(99.809952px, 6.669952px)
            }
        }

        #eGsIcFzAVaK150_to {
            animation: eGsIcFzAVaK150_to__to 2500ms linear infinite normal forwards
        }

        @keyframes eGsIcFzAVaK150_to__to {
            0% {
                transform: translate(202.350006px, 27.439998px)
            }

            64% {
                transform: translate(202.350006px, 27.439998px)
            }

            76% {
                transform: translate(202.350006px, 16.229984px)
            }

            100% {
                transform: translate(202.350006px, 27.439998px)
            }
        }

        #eGsIcFzAVaK154_to {
            animation: eGsIcFzAVaK154_to__to 2500ms linear infinite normal forwards
        }

        @keyframes eGsIcFzAVaK154_to__to {
            0% {
                transform: translate(202.304886px, 8.213667px)
            }

            72% {
                transform: translate(202.304886px, 8.213667px)
            }

            80% {
                transform: translate(202.304886px, -1.156402px)
            }

            96% {
                transform: translate(202.304886px, 8.213667px)
            }

            100% {
                transform: translate(202.304886px, 8.213667px)
            }
        }

        #eGsIcFzAVaK162_to {
            animation: eGsIcFzAVaK162_to__to 2500ms linear infinite normal forwards
        }

        @keyframes eGsIcFzAVaK162_to__to {
            0% {
                transform: translate(195.997941px, 13.798737px)
            }

            72% {
                transform: translate(195.997941px, 13.798737px)
            }

            84% {
                transform: translate(195.997941px, 6.2247px)
            }

            92% {
                transform: translate(195.997941px, 13.798737px)
            }

            100% {
                transform: translate(195.997941px, 13.798737px)
            }
        }

        #eGsIcFzAVaK178_to {
            animation: eGsIcFzAVaK178_to__to 2500ms linear infinite normal forwards
        }

        @keyframes eGsIcFzAVaK178_to__to {
            0% {
                transform: translate(209.521706px, 12.948879px)
            }

            72% {
                transform: translate(209.521706px, 12.948879px)
            }

            80% {
                transform: translate(209.521706px, 5.859353px)
            }

            92% {
                transform: translate(209.521706px, 12.948879px)
            }

            100% {
                transform: translate(209.521706px, 12.948879px)
            }
        }
        ]]>
    </style>
    <g transform="matrix(.321662 0 0 0.321662 76.211278 17.748799)">
        <g id="eGsIcFzAVaK3_to"
           transform="translate(22.350002,27.439998)">
            <g transform="translate(-22.350002,-27.439998)">
                <path d="M22.35,2.54C10,2.54,0,6.39,0,11.14v28.8c0,6.85,10,12.4,22.35,12.4s22.35-5.55,22.35-12.4v-28.8c0-4.75-10-8.6-22.35-8.6Z"
                      transform="translate(13.962117 0)"
                      fill="#030800" />
                <path d="M43.73,11.14c0-4.27-9.57-7.73-21.38-7.73s-21.35,3.46-21.35,7.73s9.57,7.74,21.38,7.74s21.35-3.47,21.35-7.74Z"
                      transform="translate(13.518872 0)"
                      fill="#fffffd" />
                <path d="M14.55,36c4.45-.47,1.87-3.17,1.14-4.41-3.3-1.73-2.69-2.59-1.47-3.87.45-2.47,1.31-2.5-.44-2.7-1.37-1.32-2-.07-.51-1.54c0-.08,1.46.33-2.1-.68-.42-.05-.41-.16.58-1.06c1.12-1.13.62-.36-2-.8c1.86-.63-4.82-2.18-5.73-2.72-2.75-1.6-3.59-1.14-2.72,14.21.109544,2.483983.373386,4.958755.79,7.41.20744,1.366932.618679,2.695031,1.22,3.94.73.39,4,3.23,5,3.42c3.68,2.92,3.2,1.12,5.66,1.23-.35,1.69,2.71.32,6.12.31.16-.64-5.19-2.62-5.72-3.06s3.77.64,7-.32c-2.698987-1.465613-5.268268-3.158395-7.68-5.06c3.79-1.77,2.54-2.93.86-4.3Z"
                      transform="translate(13.518872 0)"
                      fill="#113000" />
                <g id="eGsIcFzAVaK7_to"
                   transform="translate(22.126835,10.413245)">
                    <g transform="translate(-22.126835,-10.413245)">
                        <path d="M15.21,8.89c2.71-1.16,3.22-4.05,10.7-1.74s6.78,2.32,2.79,5.5-1.93,1.46-8.7,1.16c-13.1-.58-4.79-4.92-4.79-4.92Z"
                              transform="translate(13.518872 0)"
                              fill="#e61300" />
                        <path d="M25.58,13.14c-.337564-.022295-.672332-.075858-1-.16-1.505171-.336125-3.038555-.530309-4.58-.58-6.56-.29-6.82-1.53-6.82-1.54c0-.36,1-1.36,2.25-2c.640192-.296438,1.244161-.665531,1.8-1.1c1.094677-.950734,2.500195-1.466683,3.95-1.45c1.563327.057419,3.109781.343799,4.59.85c2.12.66,4.73,1.47,5.26,2-.585532.619354-1.228402,1.181865-1.92,1.68l-.72.57c-1.73,1.33-2.25,1.73-2.81,1.73Z"
                              transform="translate(13.518872 0)"
                              fill="#f4493a" />
                        <g style="mix-blend-mode:color-dodge"
                           opacity="0.3">
                            <path d="M18.36,12c1.776558-2.044665,3.861711-3.799162,6.18-5.2-.771208-.203115-1.556838-.346869-2.35-.43-2.292335,1.6724-4.241153,3.770606-5.74,6.18-.19.29-.36.59-.54.89.35.06.73.12,1.14.17.42-.61.86-1.13,1.31-1.61Z"
                                  transform="translate(13.518872 0)"
                                  fill="#fff" />
                            <path d="M15.68,10.16c.830977-1.054004,1.726-2.055896,2.68-3l.53-.46c-1.019342.508915-1.987165,1.11506-2.89,1.81-.29.35-.58.69-.85,1.06-.718052.923277-1.385692,1.884679-2,2.88.200384.149965.418747.274264.65.37.58-.91,1.2-1.82,1.88-2.66Z"
                                  transform="translate(13.518872 0)"
                                  fill="#fff" />
                            <path d="M28.7,12.65c1.05-.83,1.86-1.45,2.37-1.94-2.474634.696578-4.761006,1.940583-6.69,3.64c1.69.37,1.67.42,4.32-1.7Z"
                                  transform="translate(13.518872 0)"
                                  fill="#fff" />
                            <path d="M28.37,7.93c-3.052233,1.332331-5.753226,3.355508-7.89,5.91l.94.06c2.367026-2.409985,5.23462-4.270507,8.4-5.45-.41-.16-.89-.33-1.45-.52Z"
                                  transform="translate(13.518872 0)"
                                  fill="#fff" />
                        </g>
                    </g>
                </g>
                <g style="mix-blend-mode:multiply">
                    <path d="M25.76,17.64c0-.2-.21-.41-.54-.47s-.64.06-.67.26.2.41.54.47.63-.05.67-.26Z"
                          transform="translate(13.518872 0)"
                          fill="#e3e1ba" />
                    <path d="M27.72,5.55c0-.2-.21-.41-.54-.47s-.64.06-.67.26.21.41.54.47.63-.06.67-.26Z"
                          transform="translate(13.518872 0)"
                          fill="#e3e1ba" />
                    <path d="M18.88,17.27c0-.21-.22-.43-.57-.5s-.67.06-.71.28.22.43.57.5.68-.06.71-.28Z"
                          transform="translate(13.518872 0)"
                          fill="#e3e1ba" />
                    <path d="M18.24,5.16c0-.22-.22-.44-.58-.5s-.67.06-.71.27.22.44.58.5.67-.06.71-.27Z"
                          transform="translate(13.518872 0)"
                          fill="#e3e1ba" />
                    <path d="M39.48,8.44c0-.16-.16-.32-.42-.37s-.5,0-.53.2.17.32.43.37.49-.04.52-.2Z"
                          transform="translate(13.518872 0)"
                          fill="#e3e1ba" />
                    <path d="M33.34,7.38c0-.28-.29-.57-.75-.66s-.89.08-.93.36.28.57.75.65.88-.07.93-.35Z"
                          transform="translate(13.518872 0)"
                          fill="#e3e1ba" />
                    <path d="M10.91,14.69c.05-.28-.28-.57-.75-.65s-.88.08-.93.36.29.57.75.65.88-.05.93-.36Z"
                          transform="translate(13.518872 0)"
                          fill="#e3e1ba" />
                    <path d="M12.6,7.9c.05-.28-.28-.57-.75-.65s-.88.08-.93.36.29.57.75.65.89-.08.93-.36Z"
                          transform="translate(13.518872 0)"
                          fill="#e3e1ba" />
                    <path d="M32.18,15.14c.06-.33-.33-.67-.88-.77s-1,.1-1.09.42.34.67.88.77s1.04-.09,1.09-.42Z"
                          transform="translate(13.518872 0)"
                          fill="#e3e1ba" />
                    <path d="M37.53,11.59c0-.27-.29-.56-.75-.64s-.87.07-.92.35.29.57.75.65.87-.08.92-.36Z"
                          transform="translate(13.518872 0)"
                          fill="#e3e1ba" />
                    <path d="M6.45,8.84c0-.16-.17-.32-.43-.37s-.5,0-.52.2.16.32.42.37.5-.04.53-.2Z"
                          transform="translate(13.518872 0)"
                          fill="#e3e1ba" />
                    <path d="M4.49,12c0-.27-.28-.56-.74-.64s-.87.08-.92.35.28.57.74.65.87-.09.92-.36Z"
                          transform="translate(13.518872 0)"
                          fill="#e3e1ba" />
                </g>
            </g>
        </g>
        <g id="eGsIcFzAVaK28_to"
           transform="translate(112.355003,26.165125)">
            <g transform="translate(-112.355003,-26.165125)">
                <path d="M112.33,2.54C100,2.54,90,6.39,90,11.14v28.8c0,6.85,10,12.4,22.36,12.4s22.35-5.55,22.35-12.4v-28.8c-.03-4.75-10.04-8.6-22.38-8.6Z"
                      fill="#030800" />
                <g id="eGsIcFzAVaK30_to"
                   transform="translate(111.040018,3.18025)">
                    <g transform="translate(-111.040018,-3.18025)">
                        <path d="M114.23,3.19c.005372-1.757841-1.412332-3.188756-3.170147-3.199687s-3.193207,1.402239-3.209698,3.160011s1.392134,3.197626,3.149845,3.219676c.851219.010678,1.671396-.319316,2.278023-.916553s.949375-1.412165.951977-2.263447Z"
                              fill="#ff6021" />
                        <path d="M113.34,2.86c0-1.039468-.62616-1.976583-1.586504-2.37437s-2.065746-.177909-2.80076.557106-.954894,1.840417-.557106,2.80076s1.334902,1.586504,2.37437,1.586504c.682422.002671,1.337664-.267238,1.820213-.749787s.752458-1.137791.749787-1.820213Z"
                              fill="#de3f00" />
                        <path d="M111.34,1.1c-.597463-.488291-1.470775-.431525-2,.13-.643796.456975-.807701,1.342948-.37,2c.46.52.53-.49,1.19-1.08s1.64-.53,1.18-1.05Z"
                              fill="#fff" />
                        <path d="M110.56,5.19c.42.44,1.34.25,2-.44s.92-1.59.49-2-.56.56-1.26,1.24-1.66.76-1.23,1.2Z"
                              fill="#ff9a00" />
                    </g>
                </g>
                <g id="eGsIcFzAVaK35_to"
                   transform="translate(118.989956,3.929969)">
                    <g transform="translate(-118.989956,-3.929969)">
                        <path d="M122.18,3.93c-.000006-1.291143-.778311-2.454961-1.971561-2.94812s-2.566106-.218399-3.477648.696009-1.181991,2.288121-.685087,3.479816s1.663159,1.966342,2.954296,1.962295c1.757882-.005511,3.180009-1.43211,3.18-3.19Z"
                              fill="#ff6021" />
                        <path d="M121.29,3.61c.004044-1.041277-.62063-1.982087-1.581876-2.382437s-2.06907-.181108-2.805369.555192-.955542,1.844123-.555192,2.805369s1.34116,1.58592,2.382437,1.581876c1.411572-.005482,2.554518-1.148428,2.56-2.56Z"
                              fill="#de3f00" />
                        <path d="M119.29,1.84c-.597463-.488291-1.470775-.431525-2,.13-.643796.456975-.807701,1.342948-.37,2c.46.52.53-.49,1.19-1.08s1.64-.53,1.18-1.05Z"
                              fill="#fff" />
                        <path d="M118.51,5.93c.42.44,1.34.25,2-.43s.92-1.59.49-2-.56.56-1.26,1.24-1.66.75-1.23,1.19Z"
                              fill="#ff9a00" />
                    </g>
                </g>
                <g id="eGsIcFzAVaK40_to"
                   transform="translate(127.939972,5.419954)">
                    <g transform="translate(-127.939972,-5.419954)">
                        <path d="M131.13,5.43c.004047-1.291137-.7706-2.457392-1.962295-2.954296s-2.565408-.226455-3.479816.685087-1.189169,2.284399-.696009,3.477648s1.656977,1.971555,2.94812,1.971561c1.75789.000009,3.184489-1.422118,3.19-3.18Z"
                              fill="#ff6021" />
                        <path d="M130.24,5.1c.004044-1.041277-.62063-1.982087-1.581876-2.382437s-2.06907-.181108-2.805369.555192-.955542,1.844123-.555192,2.805369s1.34116,1.58592,2.382437,1.581876c.678954,0,1.3301-.269714,1.810193-.749807s.749807-1.131239.749807-1.810193Z"
                              fill="#de3f00" />
                        <path d="M128.24,3.34c-.597463-.488291-1.470775-.431525-2,.13-.643796.456975-.807701,1.342948-.37,2c.46.52.53-.49,1.2-1.08s1.63-.53,1.17-1.05Z"
                              fill="#fff" />
                        <path d="M127.46,7.43c.43.44,1.34.25,2-.44s.93-1.59.5-2-.56.56-1.26,1.24-1.7.77-1.24,1.2Z"
                              fill="#ff9a00" />
                    </g>
                </g>
                <g id="eGsIcFzAVaK45_to"
                   transform="translate(103.449951,3.999954)">
                    <g transform="translate(-103.449951,-3.999954)">
                        <path d="M106.64,4c0-1.290235-.777219-2.453424-1.96924-2.947176s-2.564097-.220828-3.476431.691505-1.185256,2.28441-.691505,3.476431s1.656941,1.96924,2.947176,1.96924c1.761788,0,3.19-1.428212,3.19-3.19Z"
                              fill="#ff6021" />
                        <path d="M105.75,3.69c-.000008-1.040376-.627256-1.978118-1.588827-2.375312s-2.067755-.175477-2.801976.561613-.951625,1.844129-.550685,2.804144s1.34112,1.583603,2.381488,1.579555c.68069.000005,1.333356-.271081,1.813738-.753339s.748921-1.135976.746262-1.816661Z"
                              fill="#de3f00" />
                        <path d="M103.75,1.93c-.597463-.488291-1.470775-.431525-2,.13-.643796.456975-.807701,1.342948-.37,2c.46.52.53-.49,1.19-1.08s1.64-.53,1.18-1.05Z"
                              fill="#fff" />
                        <path d="M103,6c.43.44,1.34.25,2-.43s.92-1.59.5-2-.56.56-1.26,1.24-1.7.77-1.24,1.19Z"
                              fill="#ff9a00" />
                    </g>
                </g>
                <g id="eGsIcFzAVaK50_to"
                   transform="translate(96.449963,8.999968)">
                    <g transform="translate(-96.449963,-8.999968)">
                        <path d="M99.64,9c-.000006-1.291143-.778311-2.454961-1.971561-2.94812s-2.566106-.218399-3.477648.696009-1.181991,2.288121-.685087,3.479816s1.663159,1.966342,2.954296,1.962295c.845124.000004,1.655489-.336403,2.252142-.934933s.930516-1.409947.927858-2.255067Z"
                              fill="#ff6021" />
                        <path d="M98.76,8.63c0-1.039468-.62616-1.976583-1.586504-2.37437s-2.065746-.177909-2.80076.557106-.954894,1.840417-.557106,2.80076s1.334902,1.586504,2.37437,1.586504c1.419372,0,2.57-1.150628,2.57-2.57Z"
                              fill="#de3f00" />
                        <path d="M96.76,6.87c-.607066-.515117-1.512867-.457676-2.05.13-.640395.460068-.799773,1.345502-.36,2c.46.52.52-.49,1.19-1.08s1.68-.53,1.22-1.05Z"
                              fill="#fff" />
                        <path d="M96,11c.43.44,1.35.25,2-.43s.92-1.59.49-2-.56.57-1.26,1.25-1.69.7-1.23,1.18Z"
                              fill="#ff9a00" />
                    </g>
                </g>
                <g id="eGsIcFzAVaK55_to"
                   transform="translate(99.809952,6.669952)">
                    <g transform="translate(-99.809952,-6.669952)">
                        <path d="M103,6.67c0-1.290235-.777219-2.453424-1.96924-2.947176s-2.564097-.220828-3.476431.691505-1.185256,2.28441-.691505,3.476431s1.656941,1.96924,2.947176,1.96924c1.761788,0,3.19-1.428212,3.19-3.19Z"
                              fill="#ff6021" />
                        <path d="M102.11,6.34c-.000008-1.040376-.627256-1.978118-1.588827-2.375312s-2.067755-.175477-2.801976.561613-.951625,1.844129-.550685,2.804144s1.34112,1.583603,2.381488,1.579555c.68069.000005,1.333356-.271081,1.813738-.753339s.748921-1.135976.746262-1.816661Z"
                              fill="#de3f00" />
                        <path d="M100.11,4.58c-.597463-.488291-1.470775-.431525-2,.13-.643796.456975-.807701,1.342948-.37,2c.46.52.53-.49,1.2-1.08s1.63-.53,1.17-1.05Z"
                              fill="#fff" />
                        <path d="M99.33,8.67c.43.44,1.34.25,2-.43s.93-1.59.5-2-.56.56-1.26,1.24-1.67.75-1.24,1.19Z"
                              fill="#ff9a00" />
                    </g>
                </g>
                <path d="M109.82,6.1c.004044-1.292046-.771688-2.458932-1.964614-2.955246s-2.567422-.224028-3.481041.689591-1.185905,2.288116-.689591,3.481041s1.6632,1.968658,2.955246,1.964614c.843388,0,1.652234-.335035,2.2486-.9314s.9314-1.405212.9314-2.2486Z"
                      fill="#ff6021" />
                <path d="M108.94,5.77c0-1.039468-.62616-1.976583-1.586504-2.37437s-2.065746-.177909-2.80076.557106-.954894,1.840417-.557106,2.80076s1.334902,1.586504,2.37437,1.586504c1.419372,0,2.57-1.150628,2.57-2.57Z"
                      fill="#de3f00" />
                <path d="M106.94,4c-.597463-.488291-1.470775-.431525-2,.13-.648624.453881-.813317,1.34411-.37,2c.46.52.53-.49,1.19-1.08s1.64-.52,1.18-1.05Z"
                      fill="#fff" />
                <path d="M106.15,8.1c.43.44,1.35.25,2-.43s.92-1.6.49-2-.56.56-1.26,1.25-1.65.74-1.23,1.18Z"
                      fill="#ff9a00" />
                <path d="M117.41,6.93c-.000006-1.291143-.778311-2.454961-1.971561-2.94812s-2.566106-.218399-3.477648.696009-1.181991,2.288121-.685087,3.479816s1.663159,1.966342,2.954296,1.962295c.845124.000004,1.655489-.336403,2.252142-.934933s.930516-1.409947.927858-2.255067Z"
                      fill="#ff6021" />
                <path d="M116.53,6.61c.003936-1.043982-.624063-1.986609-1.589007-2.385102s-2.07507-.17366-2.808918.568891-.945582,1.855248-.535742,2.815428s1.359803,1.577024,2.403667,1.560783c1.399843-.02178,2.524722-1.159998,2.53-2.56Z"
                      fill="#de3f00" />
                <path d="M114.53,4.84c-.599041-.48334-1.46857-.426821-2,.13-.639073.459979-.802216,1.341832-.37,2c.47.52.53-.49,1.2-1.08s1.64-.53,1.17-1.05Z"
                      fill="#fff" />
                <path d="M113.74,8.93c.43.44,1.35.25,2.05-.43s.92-1.59.49-2-.56.5-1.28,1.21-1.69.78-1.26,1.22Z"
                      fill="#ff9a00" />
                <path d="M125.36,7.12c.004044-1.292046-.771688-2.458932-1.964614-2.955246s-2.567422-.224028-3.481041.689591-1.185905,2.288116-.689591,3.481041s1.6632,1.968658,2.955246,1.964614c.843388,0,1.652234-.335035,2.2486-.9314s.9314-1.405212.9314-2.2486Z"
                      fill="#ff6021" />
                <path d="M124.48,6.79c0-1.039468-.62616-1.976583-1.586504-2.37437s-2.065746-.177909-2.80076.557106-.954894,1.840417-.557106,2.80076s1.334902,1.586504,2.37437,1.586504c.682422.002671,1.337664-.267238,1.820213-.749787s.752458-1.137791.749787-1.820213Z"
                      fill="#de3f00" />
                <path d="M122.48,5c-.599041-.48334-1.46857-.426821-2,.13-.639073.459979-.802216,1.341832-.37,2c.47.52.53-.49,1.2-1.08s1.63-.5,1.17-1.05Z"
                      fill="#fff" />
                <path d="M121.69,9.12c.43.44,1.35.25,2-.44s.92-1.59.49-2-.56.56-1.26,1.25-1.66.75-1.23,1.19Z"
                      fill="#ff9a00" />
                <path d="M134.31,8.64c.004044-1.292046-.771688-2.458932-1.964614-2.955246s-2.567422-.224028-3.481041.689591-1.185905,2.288116-.689591,3.481041s1.6632,1.968658,2.955246,1.964614c.843388,0,1.652234-.335035,2.2486-.9314s.9314-1.405212.9314-2.2486Z"
                      fill="#ff6021" />
                <path d="M133.43,8.31c.004048-1.040368-.619539-1.980548-1.579555-2.381488s-2.067054-.183537-2.804144.550685-.958807,1.840404-.561613,2.801976s1.334936,1.588819,2.375312,1.588827c1.415476.000011,2.564492-1.144535,2.57-2.56Z"
                      fill="#de3f00" />
                <path d="M131.43,6.55c-.597463-.488291-1.470775-.431525-2,.13-.643796.456975-.807701,1.342948-.37,2c.46.52.53-.49,1.19-1.08s1.64-.54,1.18-1.05Z"
                      fill="#fff" />
                <path d="M130.65,10.64c.42.44,1.34.24,2-.44s.92-1.59.49-2-.56.56-1.26,1.24-1.66.76-1.23,1.2Z"
                      fill="#ff9a00" />
                <path d="M129.39,9.23c-.000006-1.291143-.778311-2.454961-1.971561-2.94812s-2.566106-.218399-3.477648.696009-1.181991,2.288121-.685087,3.479816s1.663159,1.966342,2.954296,1.962295c.845124.000004,1.655489-.336403,2.252142-.934933s.930516-1.409947.927858-2.255067Z"
                      fill="#ff6021" />
                <path d="M128.51,8.91c.004048-1.040368-.619539-1.980548-1.579555-2.381488s-2.067054-.183537-2.804144.550685-.958807,1.840404-.561613,2.801976s1.334936,1.588819,2.375312,1.588827c1.415476.000011,2.564492-1.144535,2.57-2.56Z"
                      fill="#de3f00" />
                <path d="M126.51,7.15c-.607066-.515117-1.512867-.457676-2.05.13-.639073.459979-.802216,1.341832-.37,2c.47.52.53-.49,1.2-1.08s1.71-.54,1.22-1.05Z"
                      fill="#fff" />
                <path d="M125.72,11.24c.43.44,1.35.24,2-.44s.92-1.59.49-2-.51.53-1.21,1.2-1.71.8-1.28,1.24Z"
                      fill="#ff9a00" />
                <path d="M121.2,9.11c.005514-1.761776-1.418214-3.194449-3.17999-3.199969s-3.194453,1.418204-3.199979,3.17998s1.418193,3.194458,3.179969,3.199989c.846042.002656,1.658487-.330887,2.258604-.927254s.938748-1.406704.941396-2.252746Z"
                      fill="#ff6021" />
                <path d="M120.31,8.78c.004044-1.041277-.62063-1.982087-1.581876-2.382437s-2.06907-.181108-2.805369.555192-.955542,1.844123-.555192,2.805369s1.34116,1.58592,2.382437,1.581876c.678954,0,1.3301-.269714,1.810193-.749807s.749807-1.131239.749807-1.810193Z"
                      fill="#de3f00" />
                <path d="M118.31,7c-.597463-.488291-1.470775-.431525-2,.13-.643796.456975-.807701,1.342948-.37,2c.46.52.53-.49,1.19-1.08s1.64-.51,1.18-1.05Z"
                      fill="#fff" />
                <path d="M117.53,11.11c.43.44,1.34.25,2-.44s.92-1.59.5-2-.56.56-1.26,1.24-1.67.76-1.24,1.2Z"
                      fill="#ff9a00" />
                <path d="M113.25,9.74c0-1.290235-.777219-2.453424-1.96924-2.947176s-2.564097-.220828-3.476431.691505-1.185256,2.28441-.691505,3.476431s1.656941,1.96924,2.947176,1.96924c.846855.002667,1.659795-.332564,2.258615-.931385s.934052-1.41176.931385-2.258615Z"
                      fill="#ff6021" />
                <path d="M112.36,9.42c-.005534-1.419356-1.160631-2.565488-2.579987-2.559961s-2.565493,1.160618-2.559974,2.579974s1.160605,2.565499,2.579961,2.559987c.681608-.002647,1.334247-.275956,1.814341-.759801s.748316-1.138591.745659-1.820199Z"
                      fill="#de3f00" />
                <path d="M110.36,7.65c-.597463-.488291-1.470775-.431525-2,.13-.634452.462898-.796857,1.34076-.37,2c.46.51.53-.5,1.2-1.09s1.63-.52,1.17-1.04Z"
                      fill="#fff" />
                <path d="M109.58,11.75c.43.44,1.34.24,2-.44s.92-1.59.5-2-.56.56-1.26,1.24-1.67.76-1.24,1.2Z"
                      fill="#ff9a00" />
                <path d="M106.19,9.74c0-1.290235-.777219-2.453424-1.96924-2.947176s-2.564097-.220828-3.476431.691505-1.185256,2.28441-.691505,3.476431s1.656941,1.96924,2.947176,1.96924c.846855.002667,1.659795-.332564,2.258615-.931385s.934052-1.41176.931385-2.258615Z"
                      fill="#ff6021" />
                <path d="M105.3,9.42c-.005518-1.418057-1.158578-2.563666-2.576641-2.559991s-2.56517,1.155245-2.563337,2.573311s1.15191,2.566669,2.569978,2.56668c.683343.000005,1.338552-.272134,1.820809-.756268s.75185-1.140395.749191-1.823732Z"
                      fill="#de3f00" />
                <path d="M103.3,7.65c-.597463-.488291-1.470775-.431525-2,.13-.634452.462898-.796857,1.34076-.37,2c.46.51.53-.5,1.19-1.09s1.64-.52,1.18-1.04Z"
                      fill="#fff" />
                <path d="M102.52,11.75c.42.44,1.34.24,2-.44s.92-1.59.49-2-.56.56-1.26,1.24-1.66.76-1.23,1.2Z"
                      fill="#ff9a00" />
                <path d="M97.27,11.85c.016229-1.29466-.7517-2.47071-1.94358-2.976507s-2.571261-.240999-3.491124.670186-1.197724,2.287995-.703247,3.484615s1.663195,1.975663,2.957951,1.971706c1.744616.000078,3.163541-1.405461,3.18-3.15Z"
                      fill="#ff6021" />
                <path d="M96.39,11.52c-.000008-1.040376-.627256-1.978118-1.588827-2.375312s-2.067755-.175477-2.801976.561613-.951625,1.844129-.550685,2.804144s1.34112,1.583603,2.381488,1.579555c.68069.000005,1.333356-.271081,1.813738-.753339s.748921-1.135976.746262-1.816661Z"
                      fill="#de3f00" />
                <path d="M94.39,9.76c-.597463-.488291-1.470775-.431525-2,.13-.643796.456975-.807701,1.342948-.37,2c.46.52.53-.49,1.19-1.08s1.64-.53,1.18-1.05Z"
                      fill="#fff" />
                <path d="M93.61,13.85c.42.44,1.34.25,2-.43s.92-1.59.49-2-.56.57-1.26,1.25-1.66.74-1.23,1.18Z"
                      fill="#ff9a00" />
                <path d="M103.36,12.54c0-1.290235-.777219-2.453424-1.96924-2.947176s-2.564097-.220828-3.476431.691505-1.185256,2.28441-.691505,3.476431s1.656941,1.96924,2.947176,1.96924c.846855.002667,1.659795-.332564,2.258615-.931385s.934052-1.41176.931385-2.258615Z"
                      fill="#ff6021" />
                <path d="M102.47,12.22c.004044-1.041277-.62063-1.982087-1.581876-2.382437s-2.06907-.181108-2.805369.555192-.955542,1.844123-.555192,2.805369s1.34116,1.58592,2.382437,1.581876c1.411572-.005482,2.554518-1.148428,2.56-2.56Z"
                      fill="#de3f00" />
                <path d="M100.47,10.45c-.597463-.488291-1.470775-.431525-2,.13-.634452.462898-.796857,1.34076-.37,2c.46.51.53-.5,1.2-1.09s1.63-.49,1.17-1.04Z"
                      fill="#fff" />
                <path d="M99.69,14.55c.43.44,1.34.24,2-.44s.92-1.59.5-2-.56.56-1.26,1.24-1.67.76-1.24,1.2Z"
                      fill="#ff9a00" />
                <path d="M109.82,12.54c-.000006-1.291143-.778311-2.454961-1.971561-2.94812s-2.566106-.218399-3.477648.696009-1.181991,2.288121-.685087,3.479816s1.663159,1.966342,2.954296,1.962295c.845124.000004,1.655489-.336403,2.252142-.934933s.930516-1.409947.927858-2.255067Z"
                      fill="#ff6021" />
                <path d="M108.94,12.22c.004048-1.040368-.619539-1.980548-1.579555-2.381488s-2.067054-.183537-2.804144.550685-.958807,1.840404-.561613,2.801976s1.334936,1.588819,2.375312,1.588827c1.415476.000011,2.564492-1.144535,2.57-2.56Z"
                      fill="#de3f00" />
                <path d="M106.94,10.45c-.597463-.488291-1.470775-.431525-2,.13-.639073.459979-.802216,1.341832-.37,2c.46.51.53-.5,1.19-1.09s1.64-.49,1.18-1.04Z"
                      fill="#fff" />
                <path d="M106.15,14.55c.43.44,1.35.24,2-.44s.92-1.59.49-2-.56.56-1.26,1.24-1.65.76-1.23,1.2Z"
                      fill="#ff9a00" />
                <path d="M117.41,12.17c-.000006-1.291143-.778311-2.454961-1.971561-2.94812s-2.566106-.218399-3.477648.696009-1.181991,2.288121-.685087,3.479816s1.663159,1.966342,2.954296,1.962295c.845124.000004,1.655489-.336403,2.252142-.934933s.930516-1.409947.927858-2.255067Z"
                      fill="#ff6021" />
                <path d="M116.53,11.85c.003936-1.043982-.624063-1.986609-1.589007-2.385102s-2.07507-.17366-2.808918.568891-.945582,1.855248-.535742,2.815428s1.359803,1.577024,2.403667,1.560783c1.399843-.02178,2.524722-1.159998,2.53-2.56Z"
                      fill="#de3f00" />
                <path d="M114.53,10.08c-.601565-.480758-1.47128-.419878-2,.14-.639073.459979-.802216,1.341832-.37,2c.47.52.53-.49,1.2-1.08s1.64-.54,1.17-1.06Z"
                      fill="#fff" />
                <path d="M113.74,14.18c.43.44,1.35.24,2.05-.44s.92-1.59.49-2-.56.56-1.26,1.24-1.71.76-1.28,1.2Z"
                      fill="#ff9a00" />
                <path d="M125.78,12.74c0-1.290235-.777219-2.453424-1.96924-2.947176s-2.564097-.220828-3.476431.691505-1.185256,2.28441-.691505,3.476431s1.656941,1.96924,2.947176,1.96924c1.761788,0,3.19-1.428212,3.19-3.19Z"
                      fill="#ff6021" />
                <path d="M124.89,12.41c-.011046-1.418015-1.168548-2.559116-2.586576-2.549927s-2.560644,1.165195-2.553312,2.583234s1.161841,2.562168,2.579888,2.556693c.684184.000047,1.339918-.273781,1.820883-.760382s.747135-1.145481.739117-1.829618Z"
                      fill="#de3f00" />
                <path d="M122.89,10.65c-.597463-.488291-1.470775-.431525-2,.13-.639073.459979-.802216,1.341832-.37,2c.46.52.53-.49,1.2-1.08s1.63-.53,1.17-1.05Z"
                      fill="#fff" />
                <path d="M122.11,14.74c.43.44,1.34.25,2-.43s.93-1.59.5-2-.56.57-1.26,1.25-1.67.74-1.24,1.18Z"
                      fill="#ff9a00" />
                <path d="M132,13.38c.004044-1.292046-.771688-2.458932-1.964614-2.955246s-2.567422-.224028-3.481041.689591-1.185905,2.288116-.689591,3.481041s1.6632,1.968658,2.955246,1.964614c.843388,0,1.652234-.335035,2.2486-.9314s.9314-1.405212.9314-2.2486Z"
                      fill="#ff6021" />
                <path d="M131.09,13.05c.004048-1.040368-.619539-1.980548-1.579555-2.381488s-2.067054-.183537-2.804144.550685-.958807,1.840404-.561613,2.801976s1.334936,1.588819,2.375312,1.588827c1.415476.000011,2.564492-1.144535,2.57-2.56Z"
                      fill="#de3f00" />
                <path d="M129.08,11.29c-.597463-.488291-1.470775-.431525-2,.13-.639073.459979-.802216,1.341832-.37,2c.47.52.53-.49,1.2-1.08s1.64-.54,1.17-1.05Z"
                      fill="#fff" />
                <path d="M128.3,15.38c.43.44,1.35.24,2-.44s.92-1.59.49-2-.56.56-1.26,1.24-1.66.76-1.23,1.2Z"
                      fill="#ff9a00" />
                <path d="M121.61,14.41c-.000006-1.291143-.778311-2.454961-1.971561-2.94812s-2.566106-.218399-3.477648.696009-1.181991,2.288121-.685087,3.479816s1.663159,1.966342,2.954296,1.962295c.845124.000004,1.655489-.336403,2.252142-.934933s.930516-1.409947.927858-2.255067Z"
                      fill="#ff6021" />
                <path d="M120.73,14.09c.004048-1.040368-.619539-1.980548-1.579555-2.381488s-2.067054-.183537-2.804144.550685-.958807,1.840404-.561613,2.801976s1.334936,1.588819,2.375312,1.588827c1.415476.000011,2.564492-1.144535,2.57-2.56Z"
                      fill="#de3f00" />
                <path d="M118.73,12.32c-.600009-.485722-1.473512-.424576-2,.14-.648624.453881-.813317,1.34411-.37,2c.46.52.53-.49,1.19-1.08s1.64-.54,1.18-1.06Z"
                      fill="#fff" />
                <path d="M117.94,16.42c.43.44,1.35.24,2-.44s.92-1.59.49-2-.56.56-1.26,1.24-1.65.78-1.23,1.2Z"
                      fill="#ff9a00" />
                <path d="M112.66,17.73c0-1.761788-1.428212-3.19-3.19-3.19s-3.19,1.428212-3.19,3.19s1.428212,3.19,3.19,3.19s3.19-1.428212,3.19-3.19Z"
                      fill="#ff6021" />
                <path d="M111.78,17.41c-.011025-1.416716-1.16649-2.557302-2.58323-2.549966s-2.56033,1.159827-2.556684,2.576581s1.153155,2.563342,2.569914,2.563385c.685086.000021,1.341825-.27349,1.824372-.759793s.750959-1.145142.745628-1.830207Z"
                      fill="#de3f00" />
                <path d="M109.77,15.64c-.597463-.488291-1.470775-.431525-2,.13-.634452.462898-.796857,1.34076-.37,2c.46.52.53-.49,1.2-1.08s1.64-.53,1.17-1.05Z"
                      fill="#fff" />
                <path d="M109,19.73c.43.45,1.35.25,2.05-.43s.92-1.59.49-2-.56.56-1.26,1.24-1.72.75-1.28,1.19Z"
                      fill="#ff9a00" />
                <path d="M114.23,14.54c-.000138-1.756551-1.420298-3.182472-3.176834-3.189722s-3.188417,1.406899-3.203055,3.163389s1.393476,3.194307,3.149889,3.216333c.853755.01343,1.677043-.317044,2.284563-.917041s.948228-1.419103.945437-2.272959Z"
                      fill="#ff6021" />
                <path d="M113.34,14.22c.004044-1.041277-.62063-1.982087-1.581876-2.382437s-2.06907-.181108-2.805369.555192-.955542,1.844123-.555192,2.805369s1.34116,1.58592,2.382437,1.581876c1.411572-.005482,2.554518-1.148428,2.56-2.56Z"
                      fill="#de3f00" />
                <path d="M111.34,12.46c-.595831-.493353-1.473048-.436333-2,.13-.643796.456975-.807701,1.342948-.37,2c.46.52.53-.49,1.19-1.08s1.64-.51,1.18-1.05Z"
                      fill="#fff" />
                <path d="M110.56,16.55c.42.44,1.34.24,2-.44s.92-1.59.49-2-.55.56-1.26,1.24-1.66.76-1.23,1.2Z"
                      fill="#ff9a00" />
                <path d="M107,15.82c.004047-1.291137-.7706-2.457392-1.962295-2.954296s-2.565408-.226455-3.479816.685087-1.189169,2.284399-.696009,3.477648s1.656977,1.971555,2.94812,1.971561c1.75789.000009,3.184489-1.422118,3.19-3.18Z"
                      fill="#ff6021" />
                <path d="M106.11,15.49c-.000008-1.040376-.627256-1.978118-1.588827-2.375312s-2.067755-.175477-2.801976.561613-.951625,1.844129-.550685,2.804144s1.34112,1.583603,2.381488,1.579555c.68069.000005,1.333356-.271081,1.813738-.753339s.748921-1.135976.746262-1.816661Z"
                      fill="#de3f00" />
                <path d="M104.11,13.73c-.597463-.488291-1.470775-.431525-2,.13-.643796.456975-.807701,1.342948-.37,2c.46.52.53-.49,1.19-1.08s1.64-.53,1.18-1.05Z"
                      fill="#fff" />
                <path d="M103.33,17.82c.43.44,1.34.25,2-.43s.92-1.59.49-2-.55.57-1.26,1.25-1.66.74-1.23,1.18Z"
                      fill="#ff9a00" />
                <path d="M100.23,15.49c-.000138-1.756551-1.420298-3.182472-3.176834-3.189722s-3.188417,1.406899-3.203055,3.163389s1.393476,3.194307,3.149889,3.216333c.853755.01343,1.677043-.317044,2.284563-.917041s.948228-1.419103.945437-2.272959Z"
                      fill="#ff6021" />
                <path d="M99.34,15.17c.004044-1.041277-.62063-1.982087-1.581876-2.382437s-2.06907-.181108-2.805369.555192-.955542,1.844123-.555192,2.805369s1.34116,1.58592,2.382437,1.581876c1.411572-.005482,2.554518-1.148428,2.56-2.56Z"
                      fill="#de3f00" />
                <path d="M97.34,13.4c-.597463-.488291-1.470775-.431525-2,.13-.629929.465735-.791618,1.339729-.37,2c.46.52.53-.49,1.2-1.09s1.63-.52,1.17-1.04Z"
                      fill="#fff" />
                <path d="M96.56,17.5c.43.44,1.34.24,2-.44s.93-1.59.5-2-.56.56-1.26,1.24-1.67.76-1.24,1.2Z"
                      fill="#ff9a00" />
                <path d="M117.83,18.06c.004047-1.291137-.7706-2.457392-1.962295-2.954296s-2.565408-.226455-3.479816.685087-1.189169,2.284399-.696009,3.477648s1.656977,1.971555,2.94812,1.971561c1.75789.000009,3.184489-1.422118,3.19-3.18Z"
                      fill="#ff6021" />
                <path d="M116.94,17.73c-.000008-1.040376-.627256-1.978118-1.588827-2.375312s-2.067755-.175477-2.801976.561613-.951625,1.844129-.550685,2.804144s1.34112,1.583603,2.381488,1.579555c.68069.000005,1.333356-.271081,1.813738-.753339s.748921-1.135976.746262-1.816661Z"
                      fill="#de3f00" />
                <path d="M114.94,16c-.597463-.488291-1.470775-.431525-2,.13-.643796.456975-.807701,1.342948-.37,2c.46.52.53-.49,1.2-1.08s1.63-.56,1.17-1.05Z"
                      fill="#fff" />
                <path d="M114.16,20.06c.43.44,1.34.25,2-.44s.93-1.59.5-2-.56.56-1.26,1.25-1.67.75-1.24,1.19Z"
                      fill="#ff9a00" />
                <path d="M125.1,17.6c0-1.761788-1.428212-3.19-3.19-3.19s-3.19,1.428212-3.19,3.19s1.428212,3.19,3.19,3.19s3.19-1.428212,3.19-3.19Z"
                      fill="#ff6021" />
                <path d="M124.21,17.27c-.000008-1.040376-.627256-1.978118-1.588827-2.375312s-2.067755-.175477-2.801976.561613-.951625,1.844129-.550685,2.804144s1.34112,1.583603,2.381488,1.579555c.68069.000005,1.333356-.271081,1.813738-.753339s.748921-1.135976.746262-1.816661Z"
                      fill="#de3f00" />
                <path d="M122.21,15.51c-.597463-.488291-1.470775-.431525-2,.13-.643796.456975-.807701,1.342948-.37,2c.46.52.53-.49,1.2-1.08s1.63-.56,1.17-1.05Z"
                      fill="#fff" />
                <path d="M121.43,19.6c.43.44,1.34.25,2-.43s.93-1.59.5-2-.56.56-1.26,1.24-1.67.75-1.24,1.19Z"
                      fill="#ff9a00" />
                <path d="M129.6,16.56c0-1.761788-1.428212-3.19-3.19-3.19s-3.19,1.428212-3.19,3.19s1.428212,3.19,3.19,3.19c.846855.002667,1.659795-.332564,2.258615-.931385s.934052-1.41176.931385-2.258615Z"
                      fill="#ff6021" />
                <path d="M128.71,16.24c.004044-1.041277-.62063-1.982087-1.581876-2.382437s-2.06907-.181108-2.805369.555192-.955542,1.844123-.555192,2.805369s1.34116,1.58592,2.382437,1.581876c.678954,0,1.3301-.269714,1.810193-.749807s.749807-1.131239.749807-1.810193Z"
                      fill="#de3f00" />
                <path d="M126.71,14.47c-.597463-.488291-1.470775-.431525-2,.13-.629929.465735-.791618,1.339729-.37,2c.46.51.53-.5,1.2-1.09s1.63-.51,1.17-1.04Z"
                      fill="#fff" />
                <path d="M125.93,18.57c.43.44,1.34.24,2-.44s.92-1.59.49-2-.56.56-1.26,1.24-1.66.76-1.23,1.2Z"
                      fill="#ff9a00" />
                <path d="M112.33,18.88c-11.81,0-21.39-3.47-21.39-7.74v25.2h42.77v-25.2c0,4.27-9.58,7.74-21.38,7.74Z"
                      fill="#030800" />
                <path d="M104.8,36c4.44-.47,1.87-3.17,1.14-4.41-3.3-1.77-2.71-2.59-1.47-3.91.45-2.47,1.31-2.5-.44-2.7-1.38-1.32-2-.07-.51-1.54c0-.08,1.46.33-2.1-.68-.43-.05-.41-.16.58-1.06c1.12-1.13.62-.36-2-.8c1.86-.64-4.82-2.18-5.73-2.72-2.74-1.6-3.58-1.14-2.71,14.21.109544,2.483983.373386,4.958755.79,7.41.20744,1.366932.618679,2.695031,1.22,3.94.73.39,4,3.23,5,3.42c3.68,2.92,3.19,1.12,5.66,1.23-.35,1.69,2.71.32,6.11.31.17-.64-5.18-2.62-5.71-3.06s3.77.64,7-.32c-2.678518-1.458225-5.230703-3.137382-7.63-5.02c3.73-1.77,2.48-2.93.8-4.3Z"
                      fill="#113000" />
            </g>
        </g>
        <g id="eGsIcFzAVaK150_to"
           transform="translate(202.350006,27.439998)">
            <g transform="translate(-202.350006,-27.439998)">
                <path d="M202.3,2.54c-12.3,0-22.3,3.85-22.3,8.6v28.8c0,6.85,10,12.4,22.35,12.4s22.35-5.55,22.35-12.4v-28.8c-.05-4.75-10.06-8.6-22.4-8.6Z"
                      transform="translate(-16.399945 0)"
                      fill="#030800" />
                <path d="M223.68,11.14c0-4.27-9.57-7.73-21.38-7.73s-21.38,3.46-21.38,7.73s9.57,7.74,21.38,7.74s21.38-3.47,21.38-7.74Z"
                      transform="translate(-16.399945 0)"
                      fill="#fff" />
                <path d="M194.5,36c4.44-.47,1.87-3.17,1.14-4.41-3.31-1.77-2.71-2.59-1.47-3.91.45-2.47,1.31-2.5-.44-2.7-1.38-1.32-2-.07-.51-1.54c0-.08,1.45.33-2.1-.68-.43-.05-.41-.16.58-1.06c1.12-1.13.62-.36-2-.8c1.87-.63-4.81-2.18-5.72-2.72-2.74-1.6-3.59-1.14-2.71,14.21.109544,2.483983.373386,4.958755.79,7.41.202764,1.368.614218,2.696792,1.22,3.94.73.39,4,3.23,5,3.42c3.68,2.92,3.19,1.12,5.65,1.23-.35,1.69,2.72.32,6.12.31.17-.64-5.18-2.62-5.71-3.06s3.77.64,7-.32c-2.702063-1.465748-5.274656-3.158507-7.69-5.06c3.78-1.73,2.53-2.89.85-4.26Z"
                      transform="translate(-16.399945 0)"
                      fill="#113000" />
                <g id="eGsIcFzAVaK154_to"
                   transform="translate(202.304886,8.213667)">
                    <g transform="translate(-202.304886,-8.213667)">
                        <path d="M193.13,6.85c3.59-1,4.27-3.62,14.19-1.55s9,2.07,3.7,4.92-2.57,1.3-11.56,1c-17.34-.49-6.33-4.37-6.33-4.37Z"
                              transform="translate(-16.399945 0)"
                              fill="#de4900" />
                        <path d="M206.87,10.65c-.435882-.018816-.870107-.065579-1.3-.14-2.013586-.302112-4.044356-.475797-6.08-.52-8.7-.26-9.05-1.37-9.05-1.38-.07-.31,1.3-1.21,3-1.81.820718-.263992,1.617027-.598576,2.38-1c1.58197-.880093,3.370185-1.321968,5.18-1.28c2.050344.04854,4.09061.303154,6.09.76c2.81.59,6.27,1.31,7,1.76-.799112.579336-1.649284,1.084753-2.54,1.51l-1,.51c-2.24,1.23-2.93,1.59-3.68,1.59Z"
                              transform="translate(-16.399945 0)"
                              fill="#ff6a21" />
                        <g style="mix-blend-mode:multiply">
                            <path d="M197.31,9.61c2.508305-1.90097,5.263571-3.451858,8.19-4.61-1.029599-.179006-2.067591-.305835-3.11-.38-2.853892,1.361788-5.433361,3.236224-7.61,5.53-.25.26-.48.53-.71.8.45,0,1,.1,1.5.14.56-.54,1.14-1.03,1.74-1.48Z"
                                  transform="translate(-16.399945 0)"
                                  fill="#ff9447" />
                            <path d="M193.76,8c1.126348-.975637,2.311943-1.880698,3.55-2.71l.7-.41c-1.340565.444694-2.6445.993016-3.9,1.64-.38.31-.76.62-1.13,1-.91573.809104-1.783849,1.670545-2.6,2.58.277787.131875.565301.2422.86.33.76-.88,1.63-1.68,2.52-2.43Z"
                                  transform="translate(-16.399945 0)"
                                  fill="#ff9447" />
                            <path d="M211,10.22c1.38-.75,2.46-1.3,3.13-1.74-3.120889.561513-6.119445,1.66482-8.86,3.26c2.26.32,2.23.37,5.73-1.52Z"
                                  transform="translate(-16.399945 0)"
                                  fill="#ff9447" />
                            <path d="M210.58,6c-3.799817,1.055381-7.354267,2.849597-10.46,5.28.45,0,.86,0,1.25.06c3.39068-2.274867,7.159584-3.92736,11.13-4.88-.5-.15-1.18-.3-1.92-.46Z"
                                  transform="translate(-16.399945 0)"
                                  fill="#ff9447" />
                        </g>
                    </g>
                </g>
                <g id="eGsIcFzAVaK162_to"
                   transform="translate(195.997941,13.798737)">
                    <g transform="translate(-195.997941,-13.798737)">
                        <path d="M203.61,15.48c-3.58,1.06-1,2.52-10.93.53s-7.49-3.45-7-3.75c4.9-2.89,2.38-1.07,11.38-.88c17.36.37,6.55,4.1,6.55,4.1Z"
                              transform="translate(-16.399945 0)"
                              fill="#fdbb42" />
                        <path d="M199.73,15.39c-2.342052-.088474-4.668246-.423661-6.94-1-5.25-1-6.57-1.87-6.89-2.17l.16-.11c1.89-1.12,2.58-1.47,3.19-1.51.461151.00295.920579.056606,1.37.16c2.109991.372003,4.247513.566019,6.39.58c7,.15,8.63.85,9,1.11-.808714.643411-1.731503,1.128554-2.72,1.43-.743228.225725-1.447911.562894-2.09,1-.426451.316071-.939428.494042-1.47.51Z"
                              transform="translate(-16.399945 0)"
                              fill="#fde471" />
                    </g>
                </g>
                <g style="mix-blend-mode:multiply">
                    <path d="M216.1,15.69c0-.2-.2-.41-.54-.47s-.63.06-.67.26.21.41.54.47.64-.06.67-.26Z"
                          transform="translate(-16.399945 0)"
                          fill="#e3e1ba" />
                    <path d="M208.88,4.62c0-.2-.2-.41-.54-.47s-.63.06-.67.26.21.41.54.47.64-.05.67-.26Z"
                          transform="translate(-16.399945 0)"
                          fill="#e3e1ba" />
                    <path d="M201.41,18.17c0-.21-.22-.44-.57-.5s-.68.06-.71.27.22.44.57.5.68-.06.71-.27Z"
                          transform="translate(-16.399945 0)"
                          fill="#e3e1ba" />
                    <path d="M192.86,5.94c0-.22-.22-.44-.58-.5s-.67.06-.71.27.22.44.58.5.67-.06.71-.27Z"
                          transform="translate(-16.399945 0)"
                          fill="#e3e1ba" />
                    <path d="M219.43,8.44c0-.16-.16-.32-.43-.37s-.49,0-.52.2.16.32.42.37.5-.04.53-.2Z"
                          transform="translate(-16.399945 0)"
                          fill="#e3e1ba" />
                    <path d="M215.75,6.15c.05-.28-.28-.58-.75-.66s-.88.08-.93.36.29.57.75.65.88-.08.93-.35Z"
                          transform="translate(-16.399945 0)"
                          fill="#e3e1ba" />
                    <path d="M188.43,9.81c0-.27-.29-.57-.75-.65s-.88.08-.93.36.29.57.75.65.88-.08.93-.36Z"
                          transform="translate(-16.399945 0)"
                          fill="#e3e1ba" />
                    <path d="M186.74,7.21c0-.28-.29-.57-.75-.66s-.88.08-.93.36.28.57.75.65.88-.07.93-.35Z"
                          transform="translate(-16.399945 0)"
                          fill="#e3e1ba" />
                    <path d="M219.46,13.73c.06-.33-.33-.67-.88-.77s-1,.1-1.09.42.34.67.88.77s1.04-.09,1.09-.42Z"
                          transform="translate(-16.399945 0)"
                          fill="#e3e1ba" />
                    <path d="M221.71,11.29c0-.28-.28-.57-.74-.65s-.87.08-.92.36.28.56.74.64.87-.07.92-.35Z"
                          transform="translate(-16.399945 0)"
                          fill="#e3e1ba" />
                    <path d="M189.23,16c0-.15-.16-.32-.42-.36s-.5,0-.53.2.17.32.43.36.49-.08.52-.2Z"
                          transform="translate(-16.399945 0)"
                          fill="#e3e1ba" />
                    <path d="M184.44,12c.05-.27-.29-.56-.75-.64s-.87.08-.92.35.29.57.75.65.87-.09.92-.36Z"
                          transform="translate(-16.399945 0)"
                          fill="#e3e1ba" />
                </g>
                <g id="eGsIcFzAVaK178_to"
                   transform="translate(209.521706,12.948879)">
                    <g transform="translate(-209.521706,-12.948879)">
                        <path d="M215.46,8.5c-.6-.79-2.7,1.6-6.12,4.22s-7.63,3.82-6.85,4.45c1.19,1,7.91,0,11.33-2.62s3.44-3.7,1.64-6.05Z"
                              transform="translate(-16.399945 0)"
                              fill="#556810" />
                        <path d="M209.34,12.72c-2.06146,1.393886-4.212818,2.649958-6.44,3.76c1.47.5,6.93-.69,9.91-3s3.22-3.27,1.92-5c-1.01.44-2.83,2.28-5.39,4.24Z"
                              transform="translate(-16.399945 0)"
                              fill="#9cbf1d" />
                    </g>
                </g>
            </g>
        </g>
    </g>
</svg>
